<svg xmlns="http://www.w3.org/2000/svg" xmlns:xlink="http://www.w3.org/1999/xlink" width="300" height="300" viewBox="0 0 300 300">
  <defs>
    <clipPath id="clip-path">
      <rect id="Rectangle_5" data-name="Rectangle 5" width="300" height="300" transform="translate(611 414)" fill="#fff"/>
    </clipPath>
  </defs>
  <g id="android-studio" transform="translate(-611 -414)" clip-path="url(#clip-path)">
    <g id="_7263bd1e078a0d75101b4b639f302568" data-name="7263bd1e078a0d75101b4b639f302568" transform="translate(615.203 414)">
      <circle id="Ellipse_2" data-name="Ellipse 2" cx="133.647" cy="133.647" r="133.647" transform="translate(12.15 12.15)" fill="#45de89"/>
      <path id="Path_15" data-name="Path 15" d="M152.276,298.072c-80.395,0-145.8-65.4-145.8-145.8s65.4-145.8,145.8-145.8,145.8,65.4,145.8,145.8S232.671,298.072,152.276,298.072Zm0-267.293a121.5,121.5,0,1,0,121.5,121.5A121.635,121.635,0,0,0,152.276,30.779Z" transform="translate(-6.48 -6.48)" fill="#42c880"/>
      <path id="Path_16" data-name="Path 16" d="M228.3,151.306,190.39,88.128c16.076-16.491,25.793-36.217,27.495-61.381.019.126-24.563,0-24.563,0-.642,12.947-6.281,27.647-15.993,39.6L157.136,32.689l-24.3,12.15,23.522,39.207a71.96,71.96,0,0,1-71.282-.109l23.461-39.1-24.3-12.15L13.077,151.306a12.04,12.04,0,0,0-1.737,6.245v11.1a6.075,6.075,0,0,0,8.8,5.431l12.344-6.172a12.164,12.164,0,0,0,4.981-4.617l35.149-58.586a95.863,95.863,0,0,0,96.24.144l35.061,58.454a12.164,12.164,0,0,0,4.981,4.617l12.344,6.172a6.075,6.075,0,0,0,8.8-5.443v-11.1A12.04,12.04,0,0,0,228.3,151.306Z" transform="translate(25.109 125.257)" fill="#d8f0fe"/>
      <path id="Path_17" data-name="Path 17" d="M104.487,49.409H92.338v-24.3a12.15,12.15,0,0,0-12.15-12.15h-24.3a12.15,12.15,0,0,0-12.15,12.15v24.3H31.589a12.15,12.15,0,0,0-12.15,12.15v48.6a12.165,12.165,0,0,0,5.407,10.109l36.449,24.3a12.15,12.15,0,0,0,13.486,0l36.449-24.3a12.165,12.165,0,0,0,5.407-10.109v-48.6A12.15,12.15,0,0,0,104.487,49.409ZM68.038,110.157a24.3,24.3,0,1,1,23.75-24.3A24.3,24.3,0,0,1,68.038,110.157Z" transform="translate(77.758 35.639)" fill="#153b4c"/>
    </g>
  </g>
</svg>
