<svg xmlns="http://www.w3.org/2000/svg" xmlns:xlink="http://www.w3.org/1999/xlink" width="40" height="40" viewBox="0 0 40 40">
  <defs>
    <clipPath id="clip-path">
      <rect id="Rectangle_5" data-name="Rectangle 5" width="40" height="40" transform="translate(611 414)" fill="#fff"/>
    </clipPath>
  </defs>
  <g id="android-studio" transform="translate(-611 -414)" clip-path="url(#clip-path)">
    <g id="_7263bd1e078a0d75101b4b639f302568" data-name="7263bd1e078a0d75101b4b639f302568" transform="translate(605.081 407.52)">
      <circle id="Ellipse_2" data-name="Ellipse 2" cx="17.82" cy="17.82" r="17.82" transform="translate(8.1 8.1)" fill="#45de89"/>
      <path id="Path_15" data-name="Path 15" d="M25.919,45.359a19.44,19.44,0,1,1,19.44-19.44A19.461,19.461,0,0,1,25.919,45.359Zm0-35.639a16.2,16.2,0,1,0,16.2,16.2A16.218,16.218,0,0,0,25.919,9.72Z" fill="#42c880"/>
      <path id="Path_16" data-name="Path 16" d="M40.267,43.355l-5.054-8.424a12.476,12.476,0,0,0,3.666-8.184c0,.017-3.275,0-3.275,0a9.43,9.43,0,0,1-2.132,5.279l-2.692-4.487-3.24,1.62,3.136,5.228a9.595,9.595,0,0,1-9.5-.015L24.3,29.159l-3.24-1.62L11.571,43.355a1.605,1.605,0,0,0-.232.833v1.481a.81.81,0,0,0,1.173.724l1.646-.823a1.622,1.622,0,0,0,.664-.616l4.687-7.811a12.782,12.782,0,0,0,12.832.019l4.675,7.794a1.622,1.622,0,0,0,.664.616l1.646.823a.81.81,0,0,0,1.173-.726V44.188A1.605,1.605,0,0,0,40.267,43.355Z" fill="#d8f0fe"/>
      <path id="Path_17" data-name="Path 17" d="M30.779,17.82h-1.62V14.58a1.62,1.62,0,0,0-1.62-1.62H24.3a1.62,1.62,0,0,0-1.62,1.62v3.24h-1.62a1.62,1.62,0,0,0-1.62,1.62v6.48a1.622,1.622,0,0,0,.721,1.348l4.86,3.24a1.62,1.62,0,0,0,1.8,0l4.86-3.24a1.622,1.622,0,0,0,.721-1.348V19.44A1.62,1.62,0,0,0,30.779,17.82Zm-4.86,8.1a3.24,3.24,0,1,1,3.167-3.24A3.24,3.24,0,0,1,25.919,25.919Z" fill="#153b4c"/>
    </g>
  </g>
</svg>
