<svg xmlns="http://www.w3.org/2000/svg" xmlns:xlink="http://www.w3.org/1999/xlink" width="134" height="134" viewBox="0 0 134 134">
  <defs>
    <clipPath id="clip-path">
      <rect id="Rectangle_5" data-name="Rectangle 5" width="134" height="134" transform="translate(611 414)" fill="#fff"/>
    </clipPath>
  </defs>
  <g id="android-studio" transform="translate(-611 -414)" clip-path="url(#clip-path)">
    <g id="_7263bd1e078a0d75101b4b639f302568" data-name="7263bd1e078a0d75101b4b639f302568" transform="translate(612.878 414)">
      <circle id="Ellipse_2" data-name="Ellipse 2" cx="59.695" cy="59.695" r="59.695" transform="translate(5.427 5.427)" fill="#45de89"/>
      <path id="Path_15" data-name="Path 15" d="M71.6,136.725A65.122,65.122,0,1,1,136.725,71.6,65.195,65.195,0,0,1,71.6,136.725Zm0-119.391A54.269,54.269,0,1,0,125.871,71.6,54.33,54.33,0,0,0,71.6,17.334Z" transform="translate(-6.48 -6.48)" fill="#42c880"/>
      <path id="Path_16" data-name="Path 16" d="M108.247,82.383,91.315,54.164A41.794,41.794,0,0,0,103.6,26.747c.009.056-10.971,0-10.971,0a31.591,31.591,0,0,1-7.144,17.686L76.462,29.4,65.608,34.828,76.115,52.34a32.142,32.142,0,0,1-31.839-.049L54.755,34.828,43.9,29.4,12.116,82.383a5.378,5.378,0,0,0-.776,2.789v4.96a2.713,2.713,0,0,0,3.929,2.426L20.782,89.8a5.433,5.433,0,0,0,2.225-2.062l15.7-26.168a42.819,42.819,0,0,0,42.987.064L97.355,87.745a5.433,5.433,0,0,0,2.225,2.062l5.514,2.757a2.713,2.713,0,0,0,3.929-2.431v-4.96A5.378,5.378,0,0,0,108.247,82.383Z" transform="translate(4.941 41.148)" fill="#d8f0fe"/>
      <path id="Path_17" data-name="Path 17" d="M57.428,29.24H52V18.387a5.427,5.427,0,0,0-5.427-5.427H35.72a5.427,5.427,0,0,0-5.427,5.427V29.24H24.866a5.427,5.427,0,0,0-5.427,5.427V56.375a5.434,5.434,0,0,0,2.415,4.515L38.135,71.743a5.427,5.427,0,0,0,6.024,0L60.439,60.89a5.434,5.434,0,0,0,2.415-4.515V34.667A5.427,5.427,0,0,0,57.428,29.24ZM41.147,56.375A10.854,10.854,0,1,1,51.755,45.521,10.854,10.854,0,0,1,41.147,56.375Z" transform="translate(23.975 8.748)" fill="#153b4c"/>
    </g>
  </g>
</svg>
