<svg xmlns="http://www.w3.org/2000/svg" xmlns:xlink="http://www.w3.org/1999/xlink" width="1873" height="530" viewBox="0 0 1873 530">
  <defs>
    <clipPath id="clip-path">
      <rect id="Rectangle_2" data-name="Rectangle 2" width="1873" height="530" rx="10" transform="translate(26 177)" fill="#161b22"/>
    </clipPath>
  </defs>
  <g id="banner" transform="translate(-26 -177)">
    <rect id="Rectangle_1" data-name="Rectangle 1" width="1873" height="530" rx="10" transform="translate(26 177)" fill="#161b22"/>
    <g id="Mask_Group_1" data-name="Mask Group 1" opacity="0.05" clip-path="url(#clip-path)">
      <g id="uuundulate" transform="translate(75.057 -325.776)">
        <path id="Path_1" data-name="Path 1" d="M1921.615,622.583c60.308,268.418-54.413,689.88-242.453,890.7s-288.322,130.7-660.108,73.24-962.879-9.281-1124.461-349.01,37.39-1070.728,348.868-1281.7S1040.073,85.966,1389.688,224.875s471.62,129.289,531.928,397.708-54.413,689.88-242.453,890.7" transform="translate(0)" fill="none" stroke="#d1cfcd" stroke-width="0.767"/>
        <path id="Path_2" data-name="Path 2" d="M1850.874,603.812c57.9,257.682-52.236,662.285-232.742,855.075s-276.793,125.47-633.707,70.318S60.06,1520.293-95.058,1194.147-59.164,166.249,239.856-36.279,1004.6,88.66,1340.233,222.012s452.752,124.117,510.641,381.8-52.236,662.285-232.742,855.075" transform="translate(29.365 24.576)" fill="none" stroke="#d1cfcd" stroke-width="0.767"/>
        <path id="Path_3" data-name="Path 3" d="M1780.145,585.041c55.483,246.945-50.059,634.69-223.047,819.447s-265.26,120.244-607.3,67.384-885.849-8.539-1034.5-321.091S-50.311,165.71,236.25-28.379,969.132,91.354,1290.777,219.149s433.886,118.945,489.368,365.891-50.059,634.69-223.047,819.447" transform="translate(58.73 49.153)" fill="none" stroke="#d1cfcd" stroke-width="0.767"/>
        <path id="Path_4" data-name="Path 4" d="M1709.416,566.27c53.064,236.208-47.882,607.1-213.353,783.818s-253.727,115.018-580.9,64.454S67.83,1406.374-74.361,1107.411s32.9-942.24,307-1127.891S933.662,94.047,1241.322,216.287,1656.34,330.06,1709.416,566.27s-47.882,607.1-213.353,783.818" transform="translate(88.095 73.729)" fill="none" stroke="#d1cfcd" stroke-width="0.767"/>
        <path id="Path_5" data-name="Path 5" d="M1638.688,547.5c50.657,225.471-45.718,579.5-203.658,748.19s-242.193,109.785-554.494,61.525-808.819-7.8-944.547-293.17S-32.6,164.632,229.037-12.58s669.154,109.321,962.83,226,396.151,108.6,446.821,334.075-45.718,579.5-203.658,748.19" transform="translate(117.46 98.306)" fill="none" stroke="#d1cfcd" stroke-width="0.767"/>
        <path id="Path_6" data-name="Path 6" d="M1567.947,528.727c48.251,214.735-43.528,551.9-193.951,712.562s-230.662,104.556-528.091,58.6-770.3-7.426-899.569-279.21S-23.751,164.092,225.431-4.681,862.721,99.434,1142.412,210.561s377.3,103.43,425.534,318.166-43.528,551.9-193.951,712.562" transform="translate(146.825 122.882)" fill="none" stroke="#d1cfcd" stroke-width="0.767"/>
        <path id="Path_7" data-name="Path 7" d="M1497.218,509.957c45.832,204-41.352,524.309-184.257,676.934s-219.127,99.329-501.685,55.666S79.487,1235.5-43.315,977.307-14.9,163.553,221.825,3.218s605.424,98.91,871.131,204.48,358.427,98.26,404.262,302.258-41.352,524.309-184.257,676.934" transform="translate(176.19 147.458)" fill="none" stroke="#d1cfcd" stroke-width="0.767"/>
        <path id="Path_8" data-name="Path 8" d="M1426.486,491.186c43.417,193.261-39.175,496.714-174.559,641.306s-207.595,94.1-475.281,52.735-693.273-6.684-809.612-251.29S-6.045,163.014,218.219,11.118s573.561,93.7,825.282,193.718,339.563,93.087,382.984,286.35S1387.31,987.9,1251.927,1132.492" transform="translate(205.555 172.035)" fill="none" stroke="#d1cfcd" stroke-width="0.767"/>
        <path id="Path_9" data-name="Path 9" d="M1355.754,472.415c41.008,182.525-37,469.118-164.862,605.678s-196.062,88.873-448.877,49.806S87.258,1121.587-22.618,890.57,2.808,162.475,214.613,19.018s541.7,88.5,779.433,182.956,320.7,87.917,361.708,270.441-37,469.118-164.862,605.678" transform="translate(234.92 196.611)" fill="none" stroke="#d1cfcd" stroke-width="0.767"/>
        <path id="Path_10" data-name="Path 10" d="M1285.021,453.644c38.6,171.787-34.822,441.523-155.164,570.05s-184.529,83.645-422.471,46.876S91.143,1064.63-12.269,847.2,11.661,161.936,211.007,26.917,720.838,110.209,944.591,199.11s301.833,82.745,340.43,254.534-34.822,441.523-155.164,570.05" transform="translate(264.285 221.188)" fill="none" stroke="#d1cfcd" stroke-width="0.767"/>
        <path id="Path_11" data-name="Path 11" d="M1214.289,434.873c36.186,161.051-32.647,413.928-145.465,534.422s-173,78.418-396.068,43.946S95.029,1007.672-1.92,803.833,20.514,161.4,207.4,34.816,685.367,112.9,895.136,196.248s282.969,77.573,319.153,238.625S1181.642,848.8,1068.824,969.294" transform="translate(293.65 245.764)" fill="none" stroke="#d1cfcd" stroke-width="0.767"/>
        <path id="Path_12" data-name="Path 12" d="M1143.558,416.1c33.772,150.315-30.471,386.334-135.768,498.793s-161.464,73.189-369.663,41.016-539.212-5.2-629.7-195.447S29.367,160.858,203.795,42.716,649.9,115.6,845.68,193.386s264.1,72.4,297.877,222.716S1113.087,802.435,1007.789,914.9" transform="translate(323.015 270.34)" fill="none" stroke="#d1cfcd" stroke-width="0.767"/>
        <path id="Path_13" data-name="Path 13" d="M1072.825,397.331c31.361,139.577-28.294,358.737-126.071,463.165S796.825,928.458,603.5,898.583,102.8,893.756,18.777,717.1,38.22,160.318,200.189,50.615s414.238,67.676,596.037,139.907,245.24,67.23,276.6,206.808S1044.531,756.068,946.754,860.5" transform="translate(352.38 294.917)" fill="none" stroke="#d1cfcd" stroke-width="0.767"/>
        <path id="Path_14" data-name="Path 14" d="M1002.093,378.56C1031.041,507.4,975.976,709.7,885.72,806.1s-138.4,62.734-316.854,35.157S106.685,836.8,29.125,673.728,47.073,159.779,196.583,58.515s382.373,62.47,550.188,129.146,226.375,62.058,255.322,190.9S975.976,709.7,885.72,806.1" transform="translate(381.745 319.493)" fill="none" stroke="#d1cfcd" stroke-width="0.767"/>
        <path id="Path_15" data-name="Path 15" d="M931.361,359.789C957.9,477.893,907.42,663.337,824.687,751.7S697.823,809.2,534.237,783.926,110.57,779.841,39.474,630.361,55.926,159.24,192.976,66.414,543.485,123.678,697.316,184.8s207.51,56.887,234.045,174.992S907.42,663.337,824.687,751.7" transform="translate(411.11 344.069)" fill="none" stroke="#d1cfcd" stroke-width="0.767"/>
        <path id="Path_16" data-name="Path 16" d="M860.629,341.018c24.123,107.367-21.764,275.953-96.977,356.282s-115.329,52.278-264.044,29.3S114.455,722.884,49.822,586.992,64.779,158.7,189.37,74.314s318.644,52.058,458.49,107.622,188.646,51.715,212.769,159.083S838.865,616.971,763.651,697.3" transform="translate(440.475 368.646)" fill="none" stroke="#d1cfcd" stroke-width="0.767"/>
        <path id="Path_17" data-name="Path 17" d="M789.9,322.247c21.711,96.631-19.588,248.357-87.28,320.653s-103.8,47.051-237.641,26.368S118.34,665.926,60.171,543.624,73.632,158.161,185.763,82.213,472.544,129.065,598.4,179.072,768.186,225.616,789.9,322.247,770.309,570.6,702.617,642.9" transform="translate(469.84 393.222)" fill="none" stroke="#d1cfcd" stroke-width="0.767"/>
        <path id="Path_18" data-name="Path 18" d="M719.165,303.476c19.3,85.894-17.411,220.762-77.581,285.025s-92.264,41.822-211.236,23.438S122.225,608.969,70.52,500.255,82.485,157.623,182.157,90.113s254.916,41.646,366.792,86.1,150.917,41.373,170.215,127.266S701.754,524.238,641.583,588.5" transform="translate(499.206 417.798)" fill="none" stroke="#d1cfcd" stroke-width="0.767"/>
        <path id="Path_19" data-name="Path 19" d="M648.432,284.705c16.887,75.157-15.234,193.167-67.884,249.4S499.817,570.7,395.718,554.61s-269.606-2.6-314.849-97.723,10.469-299.8,97.683-358.875S401.6,134.453,499.495,173.346s132.052,36.2,148.937,111.359S633.2,477.872,580.548,534.1" transform="translate(528.571 442.375)" fill="none" stroke="#d1cfcd" stroke-width="0.767"/>
        <path id="Path_20" data-name="Path 20" d="M577.7,265.934c14.474,64.42-13.058,165.572-58.187,213.768s-69.2,31.367-158.427,17.579S130,495.054,91.217,413.518s8.974-256.974,83.729-307.606,191.187,31.235,275.093,64.573,113.188,31.029,127.662,95.45S564.643,431.506,519.515,479.7" transform="translate(557.935 466.952)" fill="none" stroke="#d1cfcd" stroke-width="0.767"/>
        <path id="Path_21" data-name="Path 21" d="M506.969,247.163c12.062,53.684-10.883,137.976-48.488,178.14s-57.666,26.14-132.023,14.648-192.576-1.856-224.893-69.8S109.044,156,171.34,113.811s159.322,26.029,229.244,53.81,94.323,25.858,106.385,79.542S496.086,385.139,458.481,425.3" transform="translate(587.3 491.528)" fill="none" stroke="#d1cfcd" stroke-width="0.767"/>
        <path id="Path_22" data-name="Path 22" d="M436.238,228.392c9.649,42.947-8.707,110.381-38.792,142.512s-46.132,20.912-105.618,11.719-154.06-1.484-179.914-55.842,5.982-171.316,55.82-205.07,127.457,20.823,183.4,43.048,75.458,20.686,85.108,63.633S427.531,338.773,397.446,370.9" transform="translate(616.665 516.104)" fill="none" stroke="#d1cfcd" stroke-width="0.767"/>
        <path id="Path_23" data-name="Path 23" d="M365.5,209.622c7.236,32.21-6.53,82.786-29.093,106.885s-34.6,15.684-79.214,8.788-115.546-1.114-134.936-41.881,4.488-128.488,41.864-153.8S259.72,145.227,301.675,161.9s56.593,15.516,63.83,47.725-6.53,82.786-29.093,106.885" transform="translate(646.03 540.68)" fill="none" stroke="#d1cfcd" stroke-width="0.767"/>
        <path id="Path_24" data-name="Path 24" d="M294.772,190.85c4.825,21.474-4.353,55.19-19.395,71.257s-23.066,10.455-52.809,5.859-77.03-.742-89.957-27.921,2.992-85.658,27.909-102.536,63.73,10.412,91.7,21.525,37.73,10.343,42.554,31.817-4.353,55.19-19.395,71.257" transform="translate(675.395 565.257)" fill="none" stroke="#d1cfcd" stroke-width="0.767"/>
        <path id="Path_25" data-name="Path 25" d="M224.041,172.08c2.411,10.736-2.177,27.595-9.7,35.628s-11.533,5.227-26.4,2.929-38.514-.372-44.978-13.961,1.5-42.829,13.955-51.267,31.865,5.206,45.849,10.762,18.865,5.173,21.278,15.909-2.177,27.595-9.7,35.628" transform="translate(704.76 589.833)" fill="none" stroke="#d1cfcd" stroke-width="0.767"/>
      </g>
    </g>
    <path id="Path_26" data-name="Path 26" d="M33.48-32.4l-7.44,2.28a7.8,7.8,0,0,0-2.28-4.14,7.4,7.4,0,0,0-5.46-1.86,7.128,7.128,0,0,0-4.8,1.59,4.854,4.854,0,0,0-1.86,3.81q0,3.9,4.62,4.8l5.94,1.14a15.354,15.354,0,0,1,8.76,4.5,11.543,11.543,0,0,1,3.12,8.04,12.272,12.272,0,0,1-4.17,9.21Q25.74.9,18.72.9A20.782,20.782,0,0,1,11.46-.3,14.039,14.039,0,0,1,6.24-3.51,16.476,16.476,0,0,1,3.15-7.77,13.47,13.47,0,0,1,1.8-12.42l7.68-2.04a8.694,8.694,0,0,0,2.67,5.7,9.171,9.171,0,0,0,6.63,2.28,8,8,0,0,0,5.07-1.44,4.579,4.579,0,0,0,1.83-3.78,4.384,4.384,0,0,0-1.35-3.21,7.184,7.184,0,0,0-3.81-1.83l-5.94-1.2A15.128,15.128,0,0,1,6.42-22.2a11.094,11.094,0,0,1-3-7.92A12.15,12.15,0,0,1,7.77-39.6a15.278,15.278,0,0,1,10.47-3.84,19.52,19.52,0,0,1,6.54,1.02,12.37,12.37,0,0,1,4.62,2.73,14.621,14.621,0,0,1,2.7,3.51A14.3,14.3,0,0,1,33.48-32.4Zm5.1,24.36a7.868,7.868,0,0,1,2.46-6.06,11.716,11.716,0,0,1,6.36-2.88l7.26-1.08q2.22-.3,2.22-2.1a3.44,3.44,0,0,0-1.29-2.76A5.6,5.6,0,0,0,51.9-24a5.6,5.6,0,0,0-3.99,1.38,5.158,5.158,0,0,0-1.65,3.42l-7.08-1.5a10.382,10.382,0,0,1,3.78-6.78,13,13,0,0,1,8.88-2.94q6.6,0,9.72,3.15a10.983,10.983,0,0,1,3.12,8.07V-4.68A27.152,27.152,0,0,0,65.04,0H57.72a16.627,16.627,0,0,1-.3-3.54Q54.6.84,48.72.84A10.255,10.255,0,0,1,41.37-1.8,8.314,8.314,0,0,1,38.58-8.04ZM50.4-5.1a6.834,6.834,0,0,0,4.65-1.59q1.83-1.59,1.83-5.25v-1.32l-6.66,1.02q-3.66.54-3.66,3.72a3.255,3.255,0,0,0,1.02,2.43A3.878,3.878,0,0,0,50.4-5.1ZM80.7,0H72.72V-43.44H80.7Zm6.54-8.04A7.868,7.868,0,0,1,89.7-14.1a11.716,11.716,0,0,1,6.36-2.88l7.26-1.08q2.22-.3,2.22-2.1a3.44,3.44,0,0,0-1.29-2.76A5.6,5.6,0,0,0,100.56-24a5.6,5.6,0,0,0-3.99,1.38,5.158,5.158,0,0,0-1.65,3.42l-7.08-1.5a10.382,10.382,0,0,1,3.78-6.78,13,13,0,0,1,8.88-2.94q6.6,0,9.72,3.15a10.983,10.983,0,0,1,3.12,8.07V-4.68A27.154,27.154,0,0,0,113.7,0h-7.32a16.627,16.627,0,0,1-.3-3.54Q103.26.84,97.38.84A10.255,10.255,0,0,1,90.03-1.8,8.314,8.314,0,0,1,87.24-8.04ZM99.06-5.1a6.834,6.834,0,0,0,4.65-1.59q1.83-1.59,1.83-5.25v-1.32l-6.66,1.02q-3.66.54-3.66,3.72a3.255,3.255,0,0,0,1.02,2.43A3.878,3.878,0,0,0,99.06-5.1Zm30.3-12.24V0h-7.98V-43.44h7.98v16.38q2.7-3.24,7.98-3.24,5.4,0,8.19,3.27a12.533,12.533,0,0,1,2.79,8.43V0h-7.98V-17.22a6.436,6.436,0,0,0-1.35-4.26,5.045,5.045,0,0,0-4.11-1.62,5.047,5.047,0,0,0-3.93,1.62A6.4,6.4,0,0,0,129.36-17.34ZM197.76,0,185.4-17.64l-5.28,5.82V0h-8.28V-42.54h8.28v19.26l17.04-19.26h10.86L191.16-24,208.14,0ZM221.1-17.34V0h-7.98V-43.44h7.98v16.38q2.7-3.24,7.98-3.24,5.4,0,8.19,3.27a12.533,12.533,0,0,1,2.79,8.43V0h-7.98V-17.22a6.436,6.436,0,0,0-1.35-4.26,5.045,5.045,0,0,0-4.11-1.62,5.047,5.047,0,0,0-3.93,1.62A6.4,6.4,0,0,0,221.1-17.34Zm25.26,9.3a7.868,7.868,0,0,1,2.46-6.06,11.716,11.716,0,0,1,6.36-2.88l7.26-1.08q2.22-.3,2.22-2.1a3.44,3.44,0,0,0-1.29-2.76A5.6,5.6,0,0,0,259.68-24a5.6,5.6,0,0,0-3.99,1.38,5.158,5.158,0,0,0-1.65,3.42l-7.08-1.5a10.382,10.382,0,0,1,3.78-6.78,13,13,0,0,1,8.88-2.94q6.6,0,9.72,3.15a10.983,10.983,0,0,1,3.12,8.07V-4.68A27.151,27.151,0,0,0,272.82,0H265.5a16.626,16.626,0,0,1-.3-3.54Q262.38.84,256.5.84a10.255,10.255,0,0,1-7.35-2.64A8.314,8.314,0,0,1,246.36-8.04ZM258.18-5.1a6.834,6.834,0,0,0,4.65-1.59q1.83-1.59,1.83-5.25v-1.32L258-12.24q-3.66.54-3.66,3.72a3.255,3.255,0,0,0,1.02,2.43A3.878,3.878,0,0,0,258.18-5.1ZM288.48,0H280.5V-43.44h7.98Zm14.34-18.12h13.2a6.129,6.129,0,0,0-1.77-4.14,6.475,6.475,0,0,0-4.83-1.68,6.331,6.331,0,0,0-4.68,1.8A6.052,6.052,0,0,0,302.82-18.12Zm13.98,7.68,6.66,1.98a12.727,12.727,0,0,1-4.71,6.72A14.111,14.111,0,0,1,310.02.9a14.965,14.965,0,0,1-10.8-4.29q-4.44-4.29-4.44-11.49a15.2,15.2,0,0,1,4.32-11.19,13.9,13.9,0,0,1,10.2-4.35q6.84,0,10.71,4.08t3.87,11.22q0,.48-.03,1.08t-.03.96l-.06.42H302.64a6.544,6.544,0,0,0,2.28,4.8,7.5,7.5,0,0,0,5.16,1.92Q315.18-5.94,316.8-10.44Zm41.52-33v38.1q0,2.94.24,5.34h-7.62a17.549,17.549,0,0,1-.3-3.42,7.439,7.439,0,0,1-3.21,3A10.826,10.826,0,0,1,342.36.72a13.428,13.428,0,0,1-10.35-4.41,15.821,15.821,0,0,1-4.05-11.13,15.824,15.824,0,0,1,3.99-10.98,13.067,13.067,0,0,1,10.17-4.44q6.36,0,8.34,3.66V-43.44ZM336-14.82a8.815,8.815,0,0,0,2.04,6.15,6.8,6.8,0,0,0,5.28,2.25,6.69,6.69,0,0,0,5.22-2.28,8.928,8.928,0,0,0,2.04-6.18,8.5,8.5,0,0,0-2.04-6.03,6.817,6.817,0,0,0-5.22-2.19,6.867,6.867,0,0,0-5.25,2.22A8.535,8.535,0,0,0,336-14.82Z" transform="translate(781 438)" fill="#fff"/>
    <path id="Path_27" data-name="Path 27" d="M1.05-7.32V-9.87l12.36-6.18v2.85L4.11-8.61l9.3,4.59v2.85ZM27.48-21.27,17.19,0H14.46L24.75-21.27ZM40.89-9.87v2.55L28.53-1.17V-4.02l9.36-4.59L28.53-13.2v-2.85ZM54.63,0H51.84V-14.43h2.79ZM51.795-18.465a1.939,1.939,0,0,1-.585-1.425,1.989,1.989,0,0,1,.585-1.44,1.915,1.915,0,0,1,1.425-.6,1.989,1.989,0,0,1,1.44.585,1.95,1.95,0,0,1,.6,1.455,1.915,1.915,0,0,1-.6,1.425,1.989,1.989,0,0,1-1.44.585A1.939,1.939,0,0,1,51.795-18.465Zm11.835,1.65a8.238,8.238,0,0,0-2.25,6.165,8.289,8.289,0,0,0,2.25,6.18,7.45,7.45,0,0,0,5.43,2.22,7.45,7.45,0,0,0,5.43-2.22,8.289,8.289,0,0,0,2.25-6.18,8.238,8.238,0,0,0-2.25-6.165,7.476,7.476,0,0,0-5.43-2.2A7.476,7.476,0,0,0,63.63-16.815ZM58.38-10.65a11.812,11.812,0,0,1,.915-4.71,9.854,9.854,0,0,1,2.43-3.5,11.243,11.243,0,0,1,3.4-2.115,10.56,10.56,0,0,1,3.93-.75,10.56,10.56,0,0,1,3.93.75,11.243,11.243,0,0,1,3.4,2.115,9.854,9.854,0,0,1,2.43,3.5,11.812,11.812,0,0,1,.915,4.71,11.284,11.284,0,0,1-1.575,6A10.213,10.213,0,0,1,74.19-.81,10.876,10.876,0,0,1,69.06.45,10.876,10.876,0,0,1,63.93-.81a10.213,10.213,0,0,1-3.975-3.84A11.284,11.284,0,0,1,58.38-10.65ZM97.2-16.44l-2.64.93a4.42,4.42,0,0,0-1.35-2.505,4.29,4.29,0,0,0-3.15-1.125,4.313,4.313,0,0,0-2.94,1.02,3.213,3.213,0,0,0-1.17,2.52,2.911,2.911,0,0,0,.7,1.98,3.668,3.668,0,0,0,2.025,1.11l3.18.69a7.489,7.489,0,0,1,4.08,2.145A5.465,5.465,0,0,1,97.38-5.85a5.809,5.809,0,0,1-2.04,4.44A7.575,7.575,0,0,1,90.03.45a7.919,7.919,0,0,1-5.595-1.875A7.172,7.172,0,0,1,82.08-5.88l2.82-.9a5.114,5.114,0,0,0,1.5,3.24A4.864,4.864,0,0,0,90-2.22a4.893,4.893,0,0,0,3.24-.96,3.041,3.041,0,0,0,1.14-2.43A2.987,2.987,0,0,0,93.57-7.7,4.322,4.322,0,0,0,91.2-8.91l-3.03-.66a7.07,7.07,0,0,1-3.78-2.01,5.342,5.342,0,0,1-1.41-3.81,5.867,5.867,0,0,1,2.055-4.425A7.042,7.042,0,0,1,90-21.72a7.174,7.174,0,0,1,5.01,1.59A6.889,6.889,0,0,1,97.2-16.44ZM111.87-2.61h4.35A6.99,6.99,0,0,0,121.4-4.68a8.031,8.031,0,0,0,2.055-5.91,8.254,8.254,0,0,0-2.025-5.97,6.84,6.84,0,0,0-5.145-2.1h-4.41ZM116.31,0h-7.38V-21.27h7.44a9.915,9.915,0,0,1,7.2,2.835,10.446,10.446,0,0,1,2.91,7.845,10.248,10.248,0,0,1-2.94,7.785A10.075,10.075,0,0,1,116.31,0Zm15.75-8.7h7.89a3.837,3.837,0,0,0-1.08-2.655,3.862,3.862,0,0,0-2.88-1.035,3.71,3.71,0,0,0-2.76,1.1A3.923,3.923,0,0,0,132.06-8.7Zm8.31,3.75,2.43.84a6.391,6.391,0,0,1-2.34,3.285A6.73,6.73,0,0,1,136.32.45a7.055,7.055,0,0,1-5.145-2.085A7.541,7.541,0,0,1,129.06-7.26a7.636,7.636,0,0,1,2.04-5.46,6.459,6.459,0,0,1,4.86-2.16,6.475,6.475,0,0,1,5.1,2.055,7.973,7.973,0,0,1,1.83,5.505,5.619,5.619,0,0,1-.06.9H131.97a4.339,4.339,0,0,0,1.275,3.15,4.2,4.2,0,0,0,3.075,1.23A3.9,3.9,0,0,0,140.37-4.95Zm18.18-9.48L152.79,0h-2.85l-5.85-14.43h3.18L151.38-3.3l4.14-11.13Zm4.08,5.73h7.89a3.837,3.837,0,0,0-1.08-2.655,3.862,3.862,0,0,0-2.88-1.035,3.71,3.71,0,0,0-2.76,1.1A3.923,3.923,0,0,0,162.63-8.7Zm8.31,3.75,2.43.84a6.391,6.391,0,0,1-2.34,3.285A6.73,6.73,0,0,1,166.89.45a7.055,7.055,0,0,1-5.145-2.085A7.541,7.541,0,0,1,159.63-7.26a7.636,7.636,0,0,1,2.04-5.46,6.459,6.459,0,0,1,4.86-2.16,6.475,6.475,0,0,1,5.1,2.055,7.973,7.973,0,0,1,1.83,5.505,5.619,5.619,0,0,1-.06.9H162.54a4.339,4.339,0,0,0,1.275,3.15,4.2,4.2,0,0,0,3.075,1.23A3.9,3.9,0,0,0,170.94-4.95ZM179.88,0h-2.82V-21.72h2.82Zm7.785-3.435a4.25,4.25,0,0,0,3.2,1.365,4.25,4.25,0,0,0,3.195-1.365,5.268,5.268,0,0,0,1.305-3.8A5.225,5.225,0,0,0,194.055-11a4.25,4.25,0,0,0-3.195-1.365,4.25,4.25,0,0,0-3.2,1.365,5.225,5.225,0,0,0-1.3,3.765A5.268,5.268,0,0,0,187.665-3.435Zm-2.1-9.27a7.019,7.019,0,0,1,5.295-2.175,7.019,7.019,0,0,1,5.295,2.175A7.6,7.6,0,0,1,198.24-7.23a7.665,7.665,0,0,1-2.07,5.505A7.007,7.007,0,0,1,190.86.45a7.007,7.007,0,0,1-5.31-2.175,7.665,7.665,0,0,1-2.07-5.505A7.6,7.6,0,0,1,185.565-12.705ZM204.63,5.7h-2.79V-14.43h2.73v2.25a4.832,4.832,0,0,1,1.89-1.86,5.823,5.823,0,0,1,2.94-.72,5.969,5.969,0,0,1,4.875,2.13,8.21,8.21,0,0,1,1.755,5.4,8.2,8.2,0,0,1-1.815,5.46,6.074,6.074,0,0,1-4.9,2.16,5.871,5.871,0,0,1-2.82-.66,4.769,4.769,0,0,1-1.86-1.68Zm8.52-12.93a5.556,5.556,0,0,0-1.155-3.615,3.79,3.79,0,0,0-3.1-1.425,3.843,3.843,0,0,0-3.1,1.425A5.463,5.463,0,0,0,204.6-7.23a5.556,5.556,0,0,0,1.185,3.675,3.843,3.843,0,0,0,3.1,1.425,3.8,3.8,0,0,0,3.09-1.425A5.6,5.6,0,0,0,213.15-7.23Zm8.31-1.47h7.89a3.837,3.837,0,0,0-1.08-2.655,3.862,3.862,0,0,0-2.88-1.035,3.71,3.71,0,0,0-2.76,1.1A3.923,3.923,0,0,0,221.46-8.7Zm8.31,3.75,2.43.84a6.391,6.391,0,0,1-2.34,3.285A6.73,6.73,0,0,1,225.72.45a7.055,7.055,0,0,1-5.145-2.085A7.541,7.541,0,0,1,218.46-7.26a7.636,7.636,0,0,1,2.04-5.46,6.459,6.459,0,0,1,4.86-2.16,6.475,6.475,0,0,1,5.1,2.055,7.973,7.973,0,0,1,1.83,5.505,5.619,5.619,0,0,1-.06.9H221.37a4.339,4.339,0,0,0,1.275,3.15,4.2,4.2,0,0,0,3.075,1.23A3.9,3.9,0,0,0,229.77-4.95Zm14.13-9.63v3a8.694,8.694,0,0,0-1.23-.09q-3.96,0-3.96,4.44V0h-2.82V-14.43h2.76v2.52a4.471,4.471,0,0,1,4.32-2.76A4.731,4.731,0,0,1,243.9-14.58Z" transform="translate(781 489)" fill="#d8cffa"/>
  </g>
</svg>
