<svg xmlns="http://www.w3.org/2000/svg" xmlns:xlink="http://www.w3.org/1999/xlink" width="40" height="40" viewBox="0 0 40 40">
  <defs>
    <clipPath id="clip-path">
      <rect id="Rectangle_2" data-name="Rectangle 2" width="22" height="22" transform="translate(713 261)" fill="#1976d2"/>
    </clipPath>
  </defs>
  <g id="behance" transform="translate(-704 -252)">
    <rect id="Rectangle_1" data-name="Rectangle 1" width="40" height="40" rx="10" transform="translate(704 252)" fill="#161b22"/>
    <g id="Mask_Group_3" data-name="Mask Group 3" clip-path="url(#clip-path)">
      <path id="a2f3acb764438ff4f9a4d56c4b4b0cf3" d="M10.095,5.555A3.381,3.381,0,0,1,10.718,7.6a2.96,2.96,0,0,1-.628,1.976,3.3,3.3,0,0,1-1.038.762,3.056,3.056,0,0,1,1.572,1.184,3.519,3.519,0,0,1,.529,1.965,3.875,3.875,0,0,1-.606,2.138,3.719,3.719,0,0,1-.963,1.055,3.777,3.777,0,0,1-1.536.674,9.579,9.579,0,0,1-1.921.18H0V4.125H6.57a4.2,4.2,0,0,1,3.524,1.43Zm-7.384.9V9.414H6.016a2.773,2.773,0,0,0,1.438-.333A1.263,1.263,0,0,0,8.007,7.9a1.2,1.2,0,0,0-.73-1.24A5.217,5.217,0,0,0,5.67,6.455H2.71Zm0,5.179V15.21h3.3a3.241,3.241,0,0,0,1.378-.237A1.686,1.686,0,0,0,8.284,13.3a1.438,1.438,0,0,0-.865-1.44,3.493,3.493,0,0,0-1.361-.226H2.71ZM19.371,7.822a4.048,4.048,0,0,1,1.735,1.467,4.785,4.785,0,0,1,.8,2.05A12.621,12.621,0,0,1,22,13.308H14.672A2.369,2.369,0,0,0,15.726,15.4a2.7,2.7,0,0,0,1.451.374,2.247,2.247,0,0,0,1.458-.454,2.164,2.164,0,0,0,.542-.682H21.86a3.254,3.254,0,0,1-.974,1.793A4.928,4.928,0,0,1,17.1,17.876a5.518,5.518,0,0,1-3.541-1.22,4.764,4.764,0,0,1-1.536-3.97,5.335,5.335,0,0,1,1.385-3.955,4.895,4.895,0,0,1,3.595-1.375,5.745,5.745,0,0,1,2.365.465Zm-3.931,2.24a2.688,2.688,0,0,0-.7,1.535h4.531a2.169,2.169,0,0,0-.7-1.569,2.334,2.334,0,0,0-1.561-.534,2.114,2.114,0,0,0-1.569.568ZM14.059,6.42h5.826V4.751H14.059V6.42Z" transform="translate(713 260.999)" fill="#1976d2"/>
    </g>
  </g>
</svg>
