<svg xmlns="http://www.w3.org/2000/svg" xmlns:xlink="http://www.w3.org/1999/xlink" width="134" height="134" viewBox="0 0 134 134">
  <defs>
    <clipPath id="clip-path">
      <rect id="Rectangle_2" data-name="Rectangle 2" width="74" height="74" transform="translate(-0.15 -0.15)" fill="#1976d2"/>
    </clipPath>
  </defs>
  <g id="behance" transform="translate(-704 -252)">
    <rect id="Rectangle_1" data-name="Rectangle 1" width="134" height="134" rx="34" transform="translate(704 252)" fill="#536172" opacity="0.1"/>
    <g id="Mask_Group_3" data-name="Mask Group 3" transform="translate(734.15 282.15)" clip-path="url(#clip-path)">
      <path id="a2f3acb764438ff4f9a4d56c4b4b0cf3" d="M33.817,8.916A11.328,11.328,0,0,1,35.9,15.775,9.915,9.915,0,0,1,33.8,22.4a11.055,11.055,0,0,1-3.478,2.552,10.237,10.237,0,0,1,5.265,3.966A11.787,11.787,0,0,1,37.36,35.5a12.981,12.981,0,0,1-2.032,7.163A12.458,12.458,0,0,1,32.1,46.193a12.654,12.654,0,0,1-5.146,2.257,32.091,32.091,0,0,1-6.435.6H0V4.125H22.01Q30.344,4.25,33.817,8.916ZM9.08,11.929v9.913H20.154a9.291,9.291,0,0,0,4.819-1.115,4.23,4.23,0,0,0,1.852-3.943c0-2.1-.815-3.478-2.446-4.155a17.477,17.477,0,0,0-5.385-.7H9.08Zm0,17.349V41.259H20.14a10.857,10.857,0,0,0,4.616-.792c2-.986,2.994-2.847,2.994-5.611a4.818,4.818,0,0,0-2.9-4.823,11.7,11.7,0,0,0-4.561-.755H9.08Zm55.814-12.77a13.561,13.561,0,0,1,5.814,4.915,16.028,16.028,0,0,1,2.69,6.868,42.28,42.28,0,0,1,.295,6.6H49.153c.147,3.331,1.308,5.671,3.529,7.007a9.027,9.027,0,0,0,4.86,1.253,7.528,7.528,0,0,0,4.883-1.52,7.251,7.251,0,0,0,1.815-2.285h8.992A10.9,10.9,0,0,1,69.97,45.35Q65.444,50.187,57.3,50.192a18.485,18.485,0,0,1-11.862-4.086q-5.155-4.084-5.146-13.3,0-8.637,4.639-13.249A16.4,16.4,0,0,1,56.97,14.951a19.245,19.245,0,0,1,7.923,1.557Zm-13.17,7.5a9.005,9.005,0,0,0-2.349,5.141H64.553A7.266,7.266,0,0,0,62.208,23.9a7.819,7.819,0,0,0-5.229-1.787,7.081,7.081,0,0,0-5.256,1.9ZM47.1,11.814H66.616V6.221H47.1v5.592Z" transform="translate(0 9.692)" fill="#1976d2"/>
    </g>
  </g>
</svg>
