<svg xmlns="http://www.w3.org/2000/svg" xmlns:xlink="http://www.w3.org/1999/xlink" width="300" height="300" viewBox="0 0 300 300">
  <defs>
    <clipPath id="clip-path">
      <rect id="Rectangle_2" data-name="Rectangle 2" width="166" height="166" transform="translate(-0.164 -0.164)" fill="#1976d2"/>
    </clipPath>
  </defs>
  <g id="behance" transform="translate(-704 -252)">
    <rect id="Rectangle_1" data-name="Rectangle 1" width="300" height="300" rx="76" transform="translate(704 252)" fill="#161b22"/>
    <g id="Mask_Group_3" data-name="Mask Group 3" transform="translate(771.164 319.164)" clip-path="url(#clip-path)">
      <path id="a2f3acb764438ff4f9a4d56c4b4b0cf3" d="M75.71,14.851a25.361,25.361,0,0,1,4.672,15.357c0,6.136-1.557,11.087-4.713,14.82a24.749,24.749,0,0,1-7.787,5.714,22.92,22.92,0,0,1,11.788,8.88,26.389,26.389,0,0,1,3.971,14.738A29.062,29.062,0,0,1,79.093,90.4a27.892,27.892,0,0,1-7.219,7.91,28.331,28.331,0,0,1-11.52,5.054,71.845,71.845,0,0,1-14.408,1.351H0V4.125H49.277Q67.934,4.4,75.71,14.851ZM20.328,21.6V43.79H45.121q6.621,0,10.788-2.5c2.754-1.66,4.146-4.61,4.146-8.828,0-4.7-1.825-7.787-5.476-9.3A39.128,39.128,0,0,0,42.522,21.6H20.328Zm0,38.84V87.261H45.09c4.424,0,7.879-.588,10.334-1.774,4.476-2.207,6.7-6.374,6.7-12.562,0-5.249-2.155-8.839-6.487-10.8-2.434-1.083-5.837-1.66-10.21-1.691h-25.1ZM145.284,31.848a30.361,30.361,0,0,1,13.015,11,35.885,35.885,0,0,1,6.023,15.377A94.657,94.657,0,0,1,164.982,73H110.043c.33,7.457,2.929,12.7,7.9,15.687a20.21,20.21,0,0,0,10.881,2.805q6.714,0,10.932-3.4a16.234,16.234,0,0,0,4.063-5.115h20.132q-.8,6.606-7.3,13.449-10.133,10.829-28.372,10.839a41.385,41.385,0,0,1-26.557-9.148Q90.18,88.968,90.2,68.336,90.2,49,100.586,38.675,111,28.387,127.545,28.362a43.086,43.086,0,0,1,17.739,3.486ZM115.8,48.648q-4.177,4.254-5.26,11.51h33.982c-.361-5.167-2.125-9.076-5.249-11.768a17.506,17.506,0,0,0-11.706-4c-5.043.01-8.983,1.434-11.768,4.259Zm-10.355-27.31h43.7V8.818h-43.7v12.52Z" transform="translate(0.336 27.144)" fill="#1976d2"/>
    </g>
  </g>
</svg>
