<svg xmlns="http://www.w3.org/2000/svg" xmlns:xlink="http://www.w3.org/1999/xlink" width="134" height="134" viewBox="0 0 134 134">
  <defs>
    <clipPath id="clip-path">
      <rect id="Rectangle_8" data-name="Rectangle 8" width="134" height="134" transform="translate(730 414)" fill="#fff"/>
    </clipPath>
    <filter id="Path_20">
      <feOffset input="SourceAlpha"/>
      <feGaussianBlur stdDeviation="1.997" result="blur"/>
      <feFlood flood-opacity="0.059" result="color"/>
      <feComposite operator="out" in="SourceGraphic" in2="blur"/>
      <feComposite operator="in" in="color"/>
      <feComposite operator="in" in2="SourceGraphic"/>
    </filter>
    <filter id="Path_23">
      <feOffset dx="0.114" dy="-1.027" input="SourceAlpha"/>
      <feGaussianBlur stdDeviation="0.399" result="blur-2"/>
      <feFlood flood-opacity="0.09" result="color-2"/>
      <feComposite operator="out" in="SourceGraphic" in2="blur-2"/>
      <feComposite operator="in" in="color-2"/>
      <feComposite operator="in" in2="SourceGraphic"/>
    </filter>
  </defs>
  <g id="firebase" transform="translate(-730 -414)" clip-path="url(#clip-path)">
    <g id="f8a79659a79cc0d6ffbbd73691acdd15" transform="translate(748.195 414)">
      <path id="Path_18" data-name="Path 18" d="M0,108.16l.811-1.136L39.185,34.211l.081-.771L22.351,1.666a3.139,3.139,0,0,0-5.873.991Z" transform="translate(0 0)" fill="#ffc24a"/>
      <path id="Path_19" data-name="Path 19" d="M.143,106.945l.613-1.2L38.729,33.7,21.855,1.794a2.851,2.851,0,0,0-5.424.986Z" transform="translate(0.336 0.349)" fill="#ffa712"/>
      <g transform="matrix(1, 0, 0, 1, -18.19, 0)" filter="url(#Path_20)">
        <path id="Path_20-2" data-name="Path 20" d="M.143,106.945l.613-1.2L38.729,33.7,21.855,1.794a2.851,2.851,0,0,0-5.424.986Z" transform="translate(18.53 0.35)" fill="#fff"/>
      </g>
      <path id="Path_21" data-name="Path 21" d="M24.139,44.277l12.6-12.9L24.135,7.326a3.245,3.245,0,0,0-5.718,0L11.685,20.163v1.093L24.138,44.277Z" transform="translate(27.459 13.198)" fill="#f4bd62"/>
      <path id="Path_22" data-name="Path 22" d="M23.828,43.4,36.074,30.857,23.828,7.541c-1.163-2.213-3.987-2.445-5.138-.225L11.924,20.352l-.2.667Z" transform="translate(27.545 13.539)" fill="#ffa50e"/>
      <g transform="matrix(1, 0, 0, 1, -18.19, 0)" filter="url(#Path_23)">
        <path id="Path_23-2" data-name="Path 23" d="M23.828,43.4,36.074,30.857,23.828,7.541c-1.163-2.213-3.987-2.445-5.138-.225L11.924,20.352l-.2.667Z" transform="translate(45.74 13.54)" fill="#fff"/>
      </g>
      <path id="Path_24" data-name="Path 24" d="M0,84.807l.368-.37L1.7,83.894l49.1-48.921.622-1.694L39.18,9.938Z" transform="translate(0 23.353)" fill="#f6820c"/>
      <path id="Path_25" data-name="Path 25" d="M53.171,113.655l44.44-24.784L84.921,10.714a3.037,3.037,0,0,0-5.147-1.659L0,88.983l44.185,24.67a9.221,9.221,0,0,0,8.987,0" transform="translate(0 19.177)" fill="#fde068"/>
      <path id="Path_26" data-name="Path 26" d="M96.867,88.4,84.273,10.838c-.394-2.427-2.889-3.431-4.626-1.691L.147,88.57l43.7,24.425a9.151,9.151,0,0,0,8.918,0l44.1-24.6Z" transform="translate(0.346 19.439)" fill="#fcca3f"/>
      <path id="Path_27" data-name="Path 27" d="M53.171,56.777a9.221,9.221,0,0,1-8.986,0L.356,32.46,0,32.835l44.184,24.67a9.221,9.221,0,0,0,8.987,0l44.44-24.784-.109-.67L53.171,56.777Z" transform="translate(-1 78.325)" fill="#eeab37"/>
    </g>
  </g>
</svg>
