<svg xmlns="http://www.w3.org/2000/svg" xmlns:xlink="http://www.w3.org/1999/xlink" width="300" height="300" viewBox="0 0 300 300">
  <defs>
    <clipPath id="clip-path">
      <rect id="Rectangle_8" data-name="Rectangle 8" width="300" height="300" transform="translate(730 414)" fill="#fff"/>
    </clipPath>
    <filter id="Path_20">
      <feOffset input="SourceAlpha"/>
      <feGaussianBlur stdDeviation="1.997" result="blur"/>
      <feFlood flood-opacity="0.059" result="color"/>
      <feComposite operator="out" in="SourceGraphic" in2="blur"/>
      <feComposite operator="in" in="color"/>
      <feComposite operator="in" in2="SourceGraphic"/>
    </filter>
    <filter id="Path_23">
      <feOffset dx="0.114" dy="-1.027" input="SourceAlpha"/>
      <feGaussianBlur stdDeviation="0.399" result="blur-2"/>
      <feFlood flood-opacity="0.09" result="color-2"/>
      <feComposite operator="out" in="SourceGraphic" in2="blur-2"/>
      <feComposite operator="in" in="color-2"/>
      <feComposite operator="in" in2="SourceGraphic"/>
    </filter>
  </defs>
  <g id="firebase" transform="translate(-730 -414)" clip-path="url(#clip-path)">
    <g id="f8a79659a79cc0d6ffbbd73691acdd15" transform="translate(768.47 414)">
      <path id="Path_18" data-name="Path 18" d="M0,241.984l1.815-2.541,85.853-162.9.181-1.725L50,3.726A7.024,7.024,0,0,0,36.866,5.944Z" transform="translate(2.236 0)" fill="#ffc24a"/>
      <path id="Path_19" data-name="Path 19" d="M.143,239.082,1.515,236.4l84.954-161.2L48.718,3.831c-3.137-5.892-11.1-4.39-12.134,2.206Z" transform="translate(3.165 0.964)" fill="#ffa712"/>
      <g transform="matrix(1, 0, 0, 1, -38.47, 0)" filter="url(#Path_20)">
        <path id="Path_20-2" data-name="Path 20" d="M.143,239.082,1.515,236.4l84.954-161.2L48.718,3.831c-3.137-5.892-11.1-4.39-12.134,2.206Z" transform="translate(41.63 0.96)" fill="#fff"/>
      </g>
      <path id="Path_21" data-name="Path 21" d="M39.547,92.111,67.726,63.252,39.539,9.442a7.26,7.26,0,0,0-12.794,0L11.685,38.161v2.446l27.862,51.5Z" transform="translate(78.128 36.475)" fill="#f4bd62"/>
      <path id="Path_22" data-name="Path 22" d="M38.808,89.965,66.2,61.908,38.808,9.743c-2.6-4.952-8.921-5.471-11.495-.5L12.174,38.4,11.721,39.9Z" transform="translate(78.365 37.419)" fill="#ffa50e"/>
      <g transform="matrix(1, 0, 0, 1, -38.47, 0)" filter="url(#Path_23)">
        <path id="Path_23-2" data-name="Path 23" d="M38.808,89.965,66.2,61.908,38.808,9.743c-2.6-4.952-8.921-5.471-11.495-.5L12.174,38.4,11.721,39.9Z" transform="translate(116.83 37.42)" fill="#fff"/>
      </g>
      <path id="Path_24" data-name="Path 24" d="M0,177.441l.823-.828L3.812,175.4,113.669,65.949l1.392-3.789L87.656,9.938Z" transform="translate(2.236 64.543)" fill="#f6820c"/>
      <path id="Path_25" data-name="Path 25" d="M118.959,244.18l99.424-55.449L189.991,13.873a6.8,6.8,0,0,0-11.516-3.711L0,188.983l98.853,55.193a20.63,20.63,0,0,0,20.105,0" transform="translate(2.236 53.002)" fill="#fde068"/>
      <path id="Path_26" data-name="Path 26" d="M216.536,187.544,188.359,14.013c-.881-5.43-6.463-7.676-10.349-3.783L.147,187.92l97.768,54.646a20.473,20.473,0,0,0,19.952.005l98.669-55.028Z" transform="translate(3.192 53.724)" fill="#fcca3f"/>
      <path id="Path_27" data-name="Path 27" d="M118.957,87.366a20.63,20.63,0,0,1-20.1,0L.8,32.962,0,33.8,74.124,75.189,98.853,89a20.63,20.63,0,0,0,20.105,0l99.424-55.449-.244-1.5-99.18,55.314Z" transform="translate(2 207.893)" fill="#eeab37"/>
    </g>
  </g>
</svg>
