<svg xmlns="http://www.w3.org/2000/svg" xmlns:xlink="http://www.w3.org/1999/xlink" width="300" height="300" viewBox="0 0 300 300">
  <defs>
    <clipPath id="clip-path">
      <rect id="Rectangle_6" data-name="Rectangle 6" width="300" height="300" transform="translate(676 414)" fill="#fff"/>
    </clipPath>
  </defs>
  <g id="git" transform="translate(-676 -414)" clip-path="url(#clip-path)">
    <path id="c906a5eb573d705dc2e1918d1748a81e" d="M294.62,136.886,163.662,5.936a19.319,19.319,0,0,0-27.317,0l-27.188,27.2,34.495,34.495A22.936,22.936,0,0,1,172.7,96.867l33.245,33.25a22.954,22.954,0,1,1-13.766,12.956l-31-31,0,81.594a22.98,22.98,0,1,1-26.421,36.854c-8.976-8.991-9.713-23.534-.739-32.511a24.479,24.479,0,0,1,6.783-5.013V110.643a24.284,24.284,0,0,1-6.786-5.016A22.862,22.862,0,0,1,129.426,80.5L95.609,46.492,5.906,136.28A19.324,19.324,0,0,0,5.953,163.6l130.979,130.95a19.337,19.337,0,0,0,27.331,0L294.61,164.213a19.329,19.329,0,0,0,.01-27.326Z" transform="translate(675.728 413.755)" fill="#f34f29"/>
  </g>
</svg>
