<svg xmlns="http://www.w3.org/2000/svg" xmlns:xlink="http://www.w3.org/1999/xlink" width="40" height="40" viewBox="0 0 40 40">
  <defs>
    <clipPath id="clip-path">
      <rect id="Rectangle_6" data-name="Rectangle 6" width="40" height="40" transform="translate(676 414)" fill="#fff"/>
    </clipPath>
  </defs>
  <g id="git" transform="translate(-676 -414)" clip-path="url(#clip-path)">
    <path id="c906a5eb573d705dc2e1918d1748a81e" d="M39.518,18.494,22.057,1.034a2.576,2.576,0,0,0-3.642,0L14.79,4.66l4.6,4.6a3.058,3.058,0,0,1,3.873,3.9l4.433,4.433a3.06,3.06,0,1,1-1.836,1.728l-4.134-4.134V26.064a3.051,3.051,0,1,1-3.621.579,3.264,3.264,0,0,1,.9-.668V15a3.238,3.238,0,0,1-.9-.669,3.048,3.048,0,0,1-.611-3.35L12.983,6.441,1.023,18.413a2.576,2.576,0,0,0,.006,3.643l17.464,17.46a2.578,2.578,0,0,0,3.644,0l17.38-17.379a2.577,2.577,0,0,0,0-3.644Z" transform="translate(675.728 413.725)" fill="#f34f29"/>
  </g>
</svg>
