<svg xmlns="http://www.w3.org/2000/svg" xmlns:xlink="http://www.w3.org/1999/xlink" width="134" height="134" viewBox="0 0 134 134">
  <defs>
    <clipPath id="clip-path">
      <rect id="Rectangle_6" data-name="Rectangle 6" width="134" height="134" transform="translate(676 414)" fill="#fff"/>
    </clipPath>
  </defs>
  <g id="git" transform="translate(-676 -414)" clip-path="url(#clip-path)">
    <path id="c906a5eb573d705dc2e1918d1748a81e" d="M131.747,61.3,73.253,2.806a8.629,8.629,0,0,0-12.2,0L48.907,14.954,64.315,30.361A10.245,10.245,0,0,1,77.289,43.422L92.138,58.274a10.253,10.253,0,1,1-6.149,5.787L72.142,50.212l0,36.445A10.222,10.222,0,1,1,60.008,88.6a10.934,10.934,0,0,1,3.03-2.239V49.576a10.847,10.847,0,0,1-3.031-2.24,10.212,10.212,0,0,1-2.046-11.224L42.856,20.921,2.788,61.027a8.631,8.631,0,0,0,.021,12.2l58.5,58.491a8.637,8.637,0,0,0,12.208,0L131.743,73.5a8.633,8.633,0,0,0,0-12.206Z" transform="translate(675.728 413.736)" fill="#f34f29"/>
  </g>
</svg>
