<svg xmlns="http://www.w3.org/2000/svg" xmlns:xlink="http://www.w3.org/1999/xlink" width="300" height="300" viewBox="0 0 300 300">
  <defs>
    <clipPath id="clip-path">
      <rect id="Rectangle_2" data-name="Rectangle 2" width="166" height="166" transform="translate(-0.164 -0.164)" fill="#fff"/>
    </clipPath>
  </defs>
  <g id="gmail" transform="translate(-704 -252)">
    <rect id="Rectangle_1" data-name="Rectangle 1" width="300" height="300" rx="76" transform="translate(704 252)" fill="#161b22"/>
    <g id="Mask_Group_4" data-name="Mask Group 4" transform="translate(771.164 319.164)" clip-path="url(#clip-path)">
      <g id="gmail-2" data-name="gmail" transform="translate(0.336 20.985)">
        <path id="Path_2" data-name="Path 2" d="M11.226,96.046H37.463V32.331L0,4.254V84.928A11.2,11.2,0,0,0,11.226,96.046Z" transform="translate(0 27.655)" fill="#4285f4"/>
        <path id="Path_3" data-name="Path 3" d="M17,96.046H43.241A11.212,11.212,0,0,0,54.466,84.82V4.254L17,32.331V96.046Z" transform="translate(110.52 27.655)" fill="#34a853"/>
        <path id="Path_4" data-name="Path 4" d="M17,11.283v48.7L54.48,31.908V16.9a16.874,16.874,0,0,0-27-13.495L17,11.283Z" transform="translate(110.52 0.001)" fill="#fbbc04"/>
        <path id="Path_5" data-name="Path 5" d="M5,50.206V1.5L50.032,35.3,95.055,1.5v48.7L50.032,83.9Z" transform="translate(32.468 9.78)" fill="#ea4335"/>
        <path id="Path_6" data-name="Path 6" d="M0,16.875V31.887L37.477,59.965v-48.7L27,3.38A16.907,16.907,0,0,0,0,16.875Z" transform="translate(0 0.022)" fill="#c5221f"/>
      </g>
    </g>
  </g>
</svg>
