<svg xmlns="http://www.w3.org/2000/svg" xmlns:xlink="http://www.w3.org/1999/xlink" width="40" height="40" viewBox="0 0 40 40">
  <defs>
    <clipPath id="clip-path">
      <rect id="Rectangle_7" data-name="Rectangle 7" width="40" height="40" transform="translate(611 307)" fill="#fff"/>
    </clipPath>
  </defs>
  <g id="postman" transform="translate(-611 -307)" clip-path="url(#clip-path)">
    <g id="_2fef98e493e0d750d2554177db20ba6d" data-name="2fef98e493e0d750d2554177db20ba6d" transform="translate(610.93 306.93)">
      <path id="Path_9" data-name="Path 9" d="M31.425,10.082a.242.242,0,0,0-.088.265v0a.687.687,0,0,1-.09.75l0,0a.232.232,0,0,0-.05.145.229.229,0,0,0,.4.15,1.15,1.15,0,0,0,.143-1.253.23.23,0,0,0-.322-.053Zm.323.055,0-.007,0,.005Z" fill="#f36933" stroke="#fff" stroke-width="1"/>
      <path id="Path_10" data-name="Path 10" d="M21.339.156A18.928,18.928,0,1,0,37.7,21.339,18.929,18.929,0,0,0,21.339.156Z" transform="translate(1.07 1.07)" fill="#f36933" stroke="#fff" stroke-width="1"/>
    </g>
    <path id="Path_11" data-name="Path 11" d="M25.367,12.277a1.318,1.318,0,0,0-.919.387l-6.9,6.9-1.472-1.472c6.8-6.78,8.027-6.845,9.29-5.815Zm-7.534,7.531,6.879-6.879a.961.961,0,1,1,1.314,1.4l0,0-7.28,6.391-.911-.911Zm.511,1.075-1.7.369-.02,0a.1.1,0,0,1-.068-.164l1-1,.793.793ZM14,20.173l1.816-1.816,1.362,1.36-3.066.66-.029,0a.115.115,0,0,1-.1-.064.11.11,0,0,1-.017-.06A.111.111,0,0,1,14,20.173ZM8.352,29.557a.115.115,0,0,1-.107-.116v-.012a.119.119,0,0,1,.034-.071h0l1.466-1.466,1.893,1.893-3.289-.228Zm3.759-1.944a.352.352,0,0,0-.181.4v0l.315,1.34a.194.194,0,0,1-.327.181h0l-1.9-1.9L15.838,21.8l2.82-.609,1.354,1.354A37.669,37.669,0,0,1,12.111,27.612ZM20.288,22.3h0l-1.3-1.3,7.28-6.391a1.526,1.526,0,0,0,.181-.194l0,0c-.228,2.084-3.144,5.028-6.162,7.888Zm7.657-9.184a2.8,2.8,0,0,1-1.991-.824h0l0,0a2.823,2.823,0,0,1,3.813-4.154l0,0-2.494,2.5a.181.181,0,0,0-.054.13.179.179,0,0,0,.054.13L29.2,12.824a2.79,2.79,0,0,1-1.252.293Zm2-.824a2.652,2.652,0,0,1-.411.332l-.009.006h0l-1.87-1.87,2.375-2.375a2.823,2.823,0,0,1-.084,3.907Z" transform="translate(611.755 308.513)" fill="#fff"/>
  </g>
</svg>
