<svg xmlns="http://www.w3.org/2000/svg" xmlns:xlink="http://www.w3.org/1999/xlink" width="300" height="300" viewBox="0 0 300 300">
  <defs>
    <clipPath id="clip-path">
      <rect id="Rectangle_7" data-name="Rectangle 7" width="300" height="300" transform="translate(611 307)" fill="#fff"/>
    </clipPath>
  </defs>
  <g id="postman" transform="translate(-611 -307)" clip-path="url(#clip-path)">
    <g id="_2fef98e493e0d750d2554177db20ba6d" data-name="2fef98e493e0d750d2554177db20ba6d" transform="translate(615.244 311.244)">
      <path id="Path_9" data-name="Path 9" d="M32.938,10.37A1.854,1.854,0,0,0,32.26,12.4v-.013a5.268,5.268,0,0,1-.691,5.754l.013-.013a1.778,1.778,0,0,0-.384,1.112A1.754,1.754,0,0,0,34.306,20.4a8.823,8.823,0,0,0,1.1-9.616,1.765,1.765,0,0,0-2.468-.409Zm2.481.422-.026-.051.013.038Z" transform="translate(199.947 58.767)" fill="#f36933" stroke="#fff" stroke-width="6"/>
      <path id="Path_10" data-name="Path 10" d="M163.713,1.2A145.217,145.217,0,1,0,289.267,163.712,145.219,145.219,0,0,0,163.713,1.2Z" transform="translate(0 0)" fill="#f36933" stroke="#fff" stroke-width="6"/>
    </g>
    <path id="Path_11" data-name="Path 11" d="M136.656,43.413a9.889,9.889,0,0,0-6.891,2.9L78.023,98.061,66.984,87.022c51-50.849,60.2-51.337,69.673-43.609ZM80.149,99.9,131.741,48.3a7.2,7.2,0,1,1,9.854,10.481l-.012.012-54.6,47.932L80.149,99.9Zm3.835,8.064L71.2,110.727a.663.663,0,0,1-.151.012.728.728,0,0,1-.511-1.232l7.495-7.495,5.949,5.949Zm-32.571-5.334L65.031,89.009l10.214,10.2-23,4.95a1.279,1.279,0,0,1-.221.023.86.86,0,0,1-.767-.476.825.825,0,0,1-.128-.453A.834.834,0,0,1,51.413,102.628ZM9.047,173.01a.86.86,0,0,1-.8-.871v-.093a.9.9,0,0,1,.256-.535h.023l10.992-10.992,14.2,14.2L9.047,173.01Zm28.19-14.583a2.638,2.638,0,0,0-1.36,3V161.4l2.359,10.051a1.452,1.452,0,0,1-2.452,1.36h-.035L21.48,158.531l43.714-43.668L86.342,110.3,96.5,120.453C81.915,133.258,61.975,146.028,37.237,158.427Zm61.33-39.833h-.023l-9.749-9.749,54.6-47.932a11.446,11.446,0,0,0,1.36-1.452l.023-.023c-1.708,15.629-23.577,37.706-46.212,59.157Zm57.425-68.883a21.032,21.032,0,0,1-14.932-6.182h.012l-.035-.023a21.171,21.171,0,0,1,28.6-31.153l-.035-.023L150.891,31.073a1.359,1.359,0,0,0-.407.976,1.341,1.341,0,0,0,.407.976l14.49,14.49a20.927,20.927,0,0,1-9.389,2.2Zm15.036-6.182a19.888,19.888,0,0,1-3.079,2.487l-.07.046h-.012L153.842,32.037l17.813-17.813a21.172,21.172,0,0,1-.627,29.305Z" transform="translate(670.255 367.013)" fill="#fff"/>
  </g>
</svg>
