<svg xmlns="http://www.w3.org/2000/svg" xmlns:xlink="http://www.w3.org/1999/xlink" width="134" height="134" viewBox="0 0 134 134">
  <defs>
    <clipPath id="clip-path">
      <rect id="Rectangle_7" data-name="Rectangle 7" width="134" height="134" transform="translate(611 307)" fill="#fff"/>
    </clipPath>
  </defs>
  <g id="postman" transform="translate(-611 -307)" clip-path="url(#clip-path)">
    <g id="_2fef98e493e0d750d2554177db20ba6d" data-name="2fef98e493e0d750d2554177db20ba6d" transform="translate(614.35 310.35)">
      <path id="Path_9" data-name="Path 9" d="M31.958,10.183a.81.81,0,0,0-.3.888v-.006a2.3,2.3,0,0,1-.3,2.513l.006-.006a.776.776,0,0,0-.167.486.766.766,0,0,0,1.357.5,3.853,3.853,0,0,0,.48-4.2.771.771,0,0,0-1.078-.179Zm1.083.184-.011-.022.006.017Z" transform="translate(69.732 20.006)" fill="#f36933" stroke="#fff" stroke-width="3.5"/>
      <path id="Path_10" data-name="Path 10" d="M71.486.523a63.409,63.409,0,1,0,54.824,70.963A63.411,63.411,0,0,0,71.486.523Z" transform="translate(0 0)" fill="#f36933" stroke="#fff" stroke-width="3.5"/>
    </g>
    <path id="Path_11" data-name="Path 11" d="M65.6,23.534a4.417,4.417,0,0,0-3.078,1.3L39.412,47.944l-4.931-4.931C57.261,20.3,61.372,20.083,65.6,23.534Zm-25.24,25.23L63.407,25.719a3.218,3.218,0,1,1,4.4,4.682l-.005.005L43.414,51.815l-3.052-3.052Zm1.713,3.6L36.366,53.6a.3.3,0,0,1-.067.005.325.325,0,0,1-.228-.55l3.348-3.348,2.657,2.657ZM27.527,49.983,33.61,43.9l4.562,4.557L27.9,50.668a.571.571,0,0,1-.1.01.384.384,0,0,1-.343-.213.368.368,0,0,1-.057-.2A.373.373,0,0,1,27.527,49.983ZM8.6,81.42a.384.384,0,0,1-.358-.389V80.99a.4.4,0,0,1,.114-.239h.01l4.91-4.91,6.342,6.342L8.6,81.42Zm12.591-6.514a1.178,1.178,0,0,0-.607,1.339v-.01l1.054,4.49a.649.649,0,0,1-1.1.607H20.53l-6.374-6.379,19.526-19.5,9.446-2.04,4.536,4.536C41.151,63.665,32.245,69.369,21.195,74.907ZM48.589,57.115h-.01L44.224,52.76,68.612,31.35a5.113,5.113,0,0,0,.607-.649l.01-.01C68.467,37.672,58.7,47.534,48.589,57.115Zm25.65-30.768a9.394,9.394,0,0,1-6.669-2.761h.005l-.016-.01A9.457,9.457,0,0,1,80.332,9.661l-.016-.01L71.96,18.022a.607.607,0,0,0-.182.436.6.6,0,0,0,.182.436l6.472,6.472a9.347,9.347,0,0,1-4.194.981Zm6.716-2.761A8.883,8.883,0,0,1,79.579,24.7l-.031.021h-.005l-6.265-6.265L81.235,10.5a9.457,9.457,0,0,1-.28,13.09Z" transform="translate(632.905 329.663)" fill="#fff"/>
  </g>
</svg>
