<svg xmlns="http://www.w3.org/2000/svg" xmlns:xlink="http://www.w3.org/1999/xlink" width="134" height="134" viewBox="0 0 134 134">
  <defs>
    <clipPath id="clip-path">
      <rect id="Rectangle_11" data-name="Rectangle 11" width="134" height="134" transform="translate(136 1415)" fill="#fff" stroke="#707070" stroke-width="1"/>
    </clipPath>
  </defs>
  <g id="realm" transform="translate(-136 -1415)" clip-path="url(#clip-path)">
    <g id="realm-seeklogo.com" transform="translate(137.034 1415.757)">
      <circle id="Ellipse_3" data-name="Ellipse 3" cx="66.154" cy="66.154" r="66.154" fill="#fff"/>
      <g id="Group_13" data-name="Group 13">
        <g id="Group_12" data-name="Group 12" transform="translate(-1.034 -0.517)">
          <path id="Path_28" data-name="Path 28" d="M95.917,6.45A67.023,67.023,0,0,0,20.98,18.513C8.2,30.708,118.533,17.2,95.917,6.45Z" fill="#fcc397"/>
          <path id="Path_29" data-name="Path 29" d="M119.595,25.183c.076.1-5.462,7.5-22.107,9.6-33.6,4.241-91.276,4.69-91.189,4.5A67.131,67.131,0,0,1,21.055,18.538a47.6,47.6,0,0,0,22.6,1.452c12.323-2.254,23.287-9.375,35.477-12.277A54.852,54.852,0,0,1,95.991,6.475,67.221,67.221,0,0,1,119.595,25.183Z" fill="#fc9f95"/>
          <path id="Path_30" data-name="Path 30" d="M133.321,56.511c.042.27-75.76,7.4-112.693,5.318C8.6,61.153,1.494,53.878,1.575,53.481A66.463,66.463,0,0,1,6.193,39.293a73.418,73.418,0,0,1,35.4-9.078c15.265.156,30.24,5.246,45.5,4.866a65.481,65.481,0,0,0,32.4-9.886A66.666,66.666,0,0,1,133.321,56.511Z" fill="#f77c88"/>
          <path id="Path_31" data-name="Path 31" d="M133.926,66.624c0,.371-.009,1.111-.009,1.111a208.367,208.367,0,0,1-48.169,4.994C47.769,72.285,0,66.159,0,66.047a67.219,67.219,0,0,1,1.371-12.98,49.226,49.226,0,0,0,30.755,7.207c8.446-.915,16.468-4.04,24.29-7.366s15.6-6.9,23.867-8.817a62.491,62.491,0,0,1,36.747,2.746,63.319,63.319,0,0,1,16.079,9.291A67.444,67.444,0,0,1,133.926,66.624Z" fill="#f25192"/>
          <path id="Path_32" data-name="Path 32" d="M57.985,88.386c-20.091,3.71-54.569-.569-54.656-.834A66.908,66.908,0,0,1,0,66.643q0-.289,0-.578a54.978,54.978,0,0,1,10.09-6.25A52.455,52.455,0,0,1,37.97,54.837c9.4.938,18.384,4.419,27.075,8.169,7.322,3.159,14.6,6.572,22.2,8.93C87.987,72.168,80.1,84.3,57.985,88.386Z" fill="#d34ca3"/>
          <path id="Path_33" data-name="Path 33" d="M131.593,84.683c-1.4,2.369-14.745,10.35-32.831,11.717-23.947,1.81-52.237-5.429-42.853-9.113,14.774-5.8,27.588-16.227,42.853-20.58A58.769,58.769,0,0,1,134,67.9,66.985,66.985,0,0,1,131.593,84.683Z" fill="#9a50a5"/>
          <path id="Path_34" data-name="Path 34" d="M125.377,100.044C113.814,120.119,29.951,125.153,17.7,111.649A66.9,66.9,0,0,1,3.674,87.578a54.129,54.129,0,0,1,33.942-6.8c15,2.053,28.435,10.424,43.231,13.683a65.428,65.428,0,0,0,36.1-2.344,66.9,66.9,0,0,0,14.91-7.559A66.58,66.58,0,0,1,125.377,100.044Z" fill="#59569e"/>
          <path id="Path_35" data-name="Path 35" d="M125.1,99.762a66.978,66.978,0,0,1-107.78,11.766c2.033.777,4.307,1.449,6.391,2.036a65.645,65.645,0,0,0,35.788-.29c7.421-2.188,14.4-5.67,21.683-8.3A99.517,99.517,0,0,1,125.1,99.762Z" fill="#39477f"/>
        </g>
      </g>
    </g>
  </g>
</svg>
