<svg xmlns="http://www.w3.org/2000/svg" xmlns:xlink="http://www.w3.org/1999/xlink" width="300" height="300" viewBox="0 0 300 300">
  <defs>
    <clipPath id="clip-path">
      <rect id="Rectangle_4" data-name="Rectangle 4" width="300" height="300" transform="translate(611 362)" fill="#fff"/>
    </clipPath>
  </defs>
  <g id="xd" transform="translate(-611 -362)" clip-path="url(#clip-path)">
    <g id="_6c5c16cea62831167a50c934f1bae8fe" data-name="6c5c16cea62831167a50c934f1bae8fe" transform="translate(611 365.75)">
      <path id="Path_12" data-name="Path 12" d="M246.876,292.5H53.124A53.077,53.077,0,0,1,0,239.376V53.124A53.077,53.077,0,0,1,53.124,0H246.876A53.077,53.077,0,0,1,300,53.124V239.376A53.077,53.077,0,0,1,246.876,292.5Z" fill="#ff26be"/>
      <path id="Path_13" data-name="Path 13" d="M231.287,269.159H47.039A45.452,45.452,0,0,1,1.667,223.787V47.039A45.452,45.452,0,0,1,47.039,1.667H231.167a45.367,45.367,0,0,1,45.372,45.372V223.667a45.3,45.3,0,0,1-45.252,45.492Z" transform="translate(10.837 10.837)" fill="#2e001f"/>
      <path id="Path_14" data-name="Path 14" d="M70.084,75.221l35,67.248c.624,1,.252,2-.756,2H82.576a2.451,2.451,0,0,1-2.628-1.62c-8-16.5-16.128-33-24.5-50.748h-.252c-7.5,16.752-15.756,34.38-23.748,50.88a2.412,2.412,0,0,1-2.256,1.38H8.584c-1.248,0-1.38-1-.744-1.752L42.088,77.357l-33.12-66A1.01,1.01,0,0,1,9.712,9.6h21.5c1.248,0,1.752.252,2.244,1.38,7.872,16.5,15.876,33.5,23.376,50.124h.252c7.248-16.5,15.252-33.624,23-50,.624-1,1-1.62,2.256-1.62h20.124c1,0,1.38.756.756,1.752ZM111.22,95.6c0-29.124,19.38-51.876,50.124-51.876a55.106,55.106,0,0,1,6.5.252V10.853A1.246,1.246,0,0,1,169.1,9.6h19.752c1,0,1.248.372,1.248,1V125.357a89.276,89.276,0,0,0,.624,12.252c0,.756-.252,1-1,1.38a74.414,74.414,0,0,1-32,7.248c-27.132.108-46.512-16.632-46.5-50.64ZM167.836,63.6a18.79,18.79,0,0,0-7.248-1.248c-15.756,0-26.748,12.12-26.748,32.256,0,23,11.256,32.256,25.38,32.256a23.434,23.434,0,0,0,8.628-1.38V63.6Z" transform="translate(48.536 61.651)" fill="#ffd9f2"/>
    </g>
  </g>
</svg>
