<svg xmlns="http://www.w3.org/2000/svg" xmlns:xlink="http://www.w3.org/1999/xlink" width="40" height="40" viewBox="0 0 40 40">
  <defs>
    <clipPath id="clip-path">
      <rect id="Rectangle_4" data-name="Rectangle 4" width="40" height="40" transform="translate(611 362)" fill="#fff"/>
    </clipPath>
  </defs>
  <g id="xd" transform="translate(-611 -362)" clip-path="url(#clip-path)">
    <g id="_6c5c16cea62831167a50c934f1bae8fe" data-name="6c5c16cea62831167a50c934f1bae8fe" transform="translate(611 362.5)">
      <path id="Path_12" data-name="Path 12" d="M32.917,39H7.083A7.077,7.077,0,0,1,0,31.917V7.083A7.077,7.077,0,0,1,7.083,0H32.917A7.077,7.077,0,0,1,40,7.083V31.917A7.077,7.077,0,0,1,32.917,39Z" fill="#ff26be"/>
      <path id="Path_13" data-name="Path 13" d="M32.283,37.333H7.717a6.06,6.06,0,0,1-6.05-6.05V7.717a6.06,6.06,0,0,1,6.05-6.05h24.55a6.049,6.049,0,0,1,6.05,6.05v23.55a6.04,6.04,0,0,1-6.034,6.066Z" fill="#2e001f"/>
      <path id="Path_14" data-name="Path 14" d="M15.816,18.25l4.667,8.966c.083.133.034.267-.1.267h-2.9a.327.327,0,0,1-.35-.216c-1.067-2.2-2.15-4.4-3.267-6.766H13.83c-1,2.234-2.1,4.584-3.166,6.784a.322.322,0,0,1-.3.184H7.616c-.166,0-.184-.133-.1-.234l4.566-8.7-4.416-8.8a.135.135,0,0,1,.1-.234h2.867c.166,0,.234.034.3.184,1.05,2.2,2.117,4.467,3.117,6.683h.034c.966-2.2,2.034-4.483,3.067-6.667.083-.133.133-.216.3-.216h2.683c.133,0,.184.1.1.234ZM21.3,20.966c0-3.883,2.584-6.917,6.683-6.917a7.347,7.347,0,0,1,.867.034V9.667a.166.166,0,0,1,.166-.166h2.634c.133,0,.166.05.166.133v15.3a11.9,11.9,0,0,0,.083,1.634c0,.1-.034.133-.133.184a9.922,9.922,0,0,1-4.267.966c-3.618.014-6.2-2.218-6.2-6.752ZM28.85,16.7a2.505,2.505,0,0,0-.966-.166c-2.1,0-3.566,1.616-3.566,4.3,0,3.067,1.5,4.3,3.384,4.3a3.125,3.125,0,0,0,1.15-.184V16.7Z" fill="#ffd9f2"/>
    </g>
  </g>
</svg>
