<svg xmlns="http://www.w3.org/2000/svg" xmlns:xlink="http://www.w3.org/1999/xlink" width="134" height="134" viewBox="0 0 134 134">
  <defs>
    <clipPath id="clip-path">
      <rect id="Rectangle_4" data-name="Rectangle 4" width="134" height="134" transform="translate(611 362)" fill="#fff"/>
    </clipPath>
  </defs>
  <g id="xd" transform="translate(-611 -362)" clip-path="url(#clip-path)">
    <g id="_6c5c16cea62831167a50c934f1bae8fe" data-name="6c5c16cea62831167a50c934f1bae8fe" transform="translate(611 363.675)">
      <path id="Path_12" data-name="Path 12" d="M110.271,130.65H23.729A23.708,23.708,0,0,1,0,106.921V23.729A23.708,23.708,0,0,1,23.729,0h86.543A23.708,23.708,0,0,1,134,23.729v83.193A23.708,23.708,0,0,1,110.271,130.65Z" fill="#ff26be"/>
      <path id="Path_13" data-name="Path 13" d="M104.231,121.147h-82.3A20.3,20.3,0,0,1,1.667,100.881V21.933A20.3,20.3,0,0,1,21.933,1.667h82.244a20.264,20.264,0,0,1,20.266,20.266v78.894a20.233,20.233,0,0,1-20.213,20.32Z" transform="translate(3.918 3.918)" fill="#2e001f"/>
      <path id="Path_14" data-name="Path 14" d="M35.436,38.847,51.071,68.884c.279.445.113.9-.338.9H41.016a1.1,1.1,0,0,1-1.174-.724c-3.575-7.37-7.2-14.74-10.945-22.667h-.113c-3.35,7.483-7.038,15.356-10.607,22.726a1.077,1.077,0,0,1-1.008.616h-9.2c-.557,0-.616-.445-.332-.783L22.931,39.8,8.138,10.321a.451.451,0,0,1,.332-.783h9.605c.557,0,.783.113,1,.616,3.516,7.37,7.091,14.965,10.441,22.389h.113c3.237-7.37,6.813-15.019,10.275-22.335.279-.445.445-.724,1.008-.724H49.9c.445,0,.616.338.338.783Zm18.374,9.1c0-13.009,8.656-23.171,22.389-23.171a24.614,24.614,0,0,1,2.905.113V10.1a.556.556,0,0,1,.557-.557h8.823c.445,0,.557.166.557.445V61.241a39.877,39.877,0,0,0,.279,5.473c0,.338-.113.445-.445.616a33.238,33.238,0,0,1-14.3,3.237c-12.119.048-20.775-7.429-20.77-22.619ZM79.1,33.658a8.393,8.393,0,0,0-3.237-.557c-7.038,0-11.947,5.414-11.947,14.408,0,10.275,5.028,14.408,11.336,14.408A10.467,10.467,0,0,0,79.1,61.3V33.658Z" transform="translate(17.548 22.289)" fill="#ffd9f2"/>
    </g>
  </g>
</svg>
