<svg xmlns="http://www.w3.org/2000/svg" xmlns:xlink="http://www.w3.org/1999/xlink" width="1196" height="1196" viewBox="0 0 1196 1196">
  <defs>
    <clipPath id="clip-path">
      <rect id="Rectangle_9" data-name="Rectangle 9" width="1196" height="1196" transform="translate(610.594 362)" fill="#fff"/>
    </clipPath>
  </defs>
  <g id="xd" transform="translate(-610.594 -362)" clip-path="url(#clip-path)">
    <g id="_6c5c16cea62831167a50c934f1bae8fe" data-name="6c5c16cea62831167a50c934f1bae8fe" transform="translate(611 376.945)">
      <path id="Path_28" data-name="Path 28" d="M983.879,1165.7H211.716A211.53,211.53,0,0,1,0,953.989V211.716A211.53,211.53,0,0,1,211.716,0H983.879a211.53,211.53,0,0,1,211.716,211.716V953.989A211.53,211.53,0,0,1,983.879,1165.7Z" fill="#ff26be"/>
      <path id="Path_29" data-name="Path 29" d="M916.775,1067.707H182.489c-99.617,0-180.822-81.2-180.822-180.822v-704.4c0-99.617,81.2-180.822,180.822-180.822H916.3c100.143,0,180.822,81.2,180.822,180.822V886.407c.478,100.1-80.727,181.3-180.344,181.3Z" transform="translate(48.165 48.165)" fill="#2e001f"/>
      <path id="Path_30" data-name="Path 30" d="M257.017,271.464l139.5,268c2.487,3.969,1,7.987-3.013,7.987H306.8c-5.5,0-7.987-1.482-10.473-6.456-31.9-65.758-64.275-131.515-97.656-202.247h-1c-29.89,66.762-62.793,137.015-94.643,202.773-2.487,3.969-4.974,5.5-8.991,5.5H11.92c-4.974,0-5.5-3.969-2.965-6.982L145.444,279.976,13.45,16.945c-3.013-3.969,0-6.982,2.965-6.982h85.7c4.974,0,6.982,1,8.943,5.5,31.372,65.758,63.271,133.524,93.161,199.76h1c28.886-65.758,60.784-134,91.678-199.282,2.487-3.969,3.969-6.456,8.991-6.456h80.2c3.969,0,5.5,3.013,3.013,6.982Zm163.94,81.2c0-116.068,77.235-206.742,199.76-206.742a219.614,219.614,0,0,1,25.92,1V14.937a4.965,4.965,0,0,1,4.974-4.974h78.718c3.969,0,4.974,1.483,4.974,3.969V471.271c0,13.438,0,30.368,2.487,48.828,0,3.013-1,3.969-3.969,5.5a296.565,296.565,0,0,1-127.546,28.886c-108.129.43-185.365-66.284-185.317-201.816Zm225.632-127.5c-6.982-3.013-16.93-4.974-28.886-4.974-62.793,0-106.6,48.3-106.6,128.55,0,91.678,44.859,128.55,101.147,128.55,11.956,0,24.916-1.483,34.385-5.5V225.17Z" transform="translate(215.722 274.015)" fill="#ffd9f2"/>
    </g>
  </g>
</svg>
